<mxfile host="65bd71144e">
    <diagram id="7BFR32ZV6r5udwo13AQs" name="Page-1">
        <mxGraphModel dx="1525" dy="1101" grid="0" gridSize="10" guides="1" tooltips="1" connect="1" arrows="1" fold="1" page="0" pageScale="1" pageWidth="850" pageHeight="1100" math="0" shadow="0">
            <root>
                <mxCell id="0"/>
                <mxCell id="1" parent="0"/>
                <mxCell id="2" value="" style="whiteSpace=wrap;html=1;rounded=0;strokeColor=light-dark(#000000,#5881BA);strokeWidth=2;fontFamily=Shantell Sans;fontSource=https://fonts.googleapis.com/css?family=Shantell+Sans;fontSize=18;fontColor=light-dark(#000000, #b8b8ba);fillColor=light-dark(#2B5CA8,transparent);" vertex="1" parent="1">
                    <mxGeometry x="61" y="402" width="120" height="60" as="geometry"/>
                </mxCell>
                <mxCell id="3" value="" style="whiteSpace=wrap;html=1;rounded=0;strokeColor=light-dark(#000000,#5881BA);strokeWidth=2;fontFamily=Shantell Sans;fontSource=https://fonts.googleapis.com/css?family=Shantell+Sans;fontSize=18;fontColor=light-dark(#000000, #b8b8ba);fillColor=light-dark(#2B5CA8,transparent);" vertex="1" parent="1">
                    <mxGeometry x="181" y="402" width="120" height="60" as="geometry"/>
                </mxCell>
                <mxCell id="4" value="" style="whiteSpace=wrap;html=1;rounded=0;strokeColor=light-dark(#000000,#5881BA);strokeWidth=2;fontFamily=Shantell Sans;fontSource=https://fonts.googleapis.com/css?family=Shantell+Sans;fontSize=18;fontColor=light-dark(#000000, #b8b8ba);fillColor=light-dark(#2B5CA8,transparent);" vertex="1" parent="1">
                    <mxGeometry x="301" y="402" width="120" height="60" as="geometry"/>
                </mxCell>
                <mxCell id="5" value="" style="whiteSpace=wrap;html=1;rounded=0;strokeColor=light-dark(#000000,#5881BA);strokeWidth=2;fontFamily=Shantell Sans;fontSource=https://fonts.googleapis.com/css?family=Shantell+Sans;fontSize=18;fontColor=light-dark(#000000, #b8b8ba);fillColor=light-dark(#2B5CA8,transparent);" vertex="1" parent="1">
                    <mxGeometry x="421" y="402" width="120" height="60" as="geometry"/>
                </mxCell>
                <mxCell id="6" value="" style="whiteSpace=wrap;html=1;rounded=0;strokeColor=light-dark(#000000,#5881BA);strokeWidth=2;fontFamily=Shantell Sans;fontSource=https://fonts.googleapis.com/css?family=Shantell+Sans;fontSize=18;fontColor=light-dark(#000000, #b8b8ba);fillColor=light-dark(#2B5CA8,transparent);" vertex="1" parent="1">
                    <mxGeometry x="541" y="402" width="120" height="60" as="geometry"/>
                </mxCell>
                <mxCell id="7" value="" style="whiteSpace=wrap;html=1;rounded=0;strokeColor=light-dark(#000000,#5881BA);strokeWidth=2;fontFamily=Shantell Sans;fontSource=https://fonts.googleapis.com/css?family=Shantell+Sans;fontSize=18;fontColor=light-dark(#000000, #b8b8ba);fillColor=light-dark(#2B5CA8,transparent);" vertex="1" parent="1">
                    <mxGeometry x="661" y="402" width="120" height="60" as="geometry"/>
                </mxCell>
                <mxCell id="8" value="" style="whiteSpace=wrap;html=1;rounded=0;strokeColor=light-dark(#000000,#5881BA);strokeWidth=2;fontFamily=Shantell Sans;fontSource=https://fonts.googleapis.com/css?family=Shantell+Sans;fontSize=18;fontColor=light-dark(#000000, #b8b8ba);fillColor=light-dark(#2B5CA8,transparent);points=[[0,0,0,0,0],[0,0.25,0,0,0],[0,0.5,0,0,0],[0,0.75,0,0,0],[0,1,0,0,0],[0.25,0,0,0,0],[0.25,1,0,0,0],[0.5,0,0,0,0],[0.5,0.5,0,0,0],[0.5,1,0,0,0],[0.75,0,0,0,0],[0.75,1,0,0,0],[1,0,0,0,0],[1,0.25,0,0,0],[1,0.5,0,0,0],[1,0.75,0,0,0],[1,1,0,0,0]];" vertex="1" parent="1">
                    <mxGeometry x="61" y="208" width="120" height="60" as="geometry"/>
                </mxCell>
                <mxCell id="9" value="&lt;p&gt;&lt;font style=&quot;font-size: 22px;&quot; face=&quot;Fira Code&quot;&gt;p:&lt;/font&gt;&lt;/p&gt;" style="text;strokeColor=none;align=center;fillColor=none;html=1;verticalAlign=middle;whiteSpace=wrap;rounded=0;fontFamily=Shantell Sans;fontSource=https://fonts.googleapis.com/css?family=Shantell+Sans;fontSize=18;fontColor=light-dark(#000000, #b8b8ba);" vertex="1" parent="1">
                    <mxGeometry x="0.997619047619037" y="218.9965292503719" width="60" height="30" as="geometry"/>
                </mxCell>
                <mxCell id="10" value="&lt;p&gt;&lt;font style=&quot;font-size: 22px;&quot; face=&quot;Fira Code&quot;&gt;v:&lt;/font&gt;&lt;/p&gt;" style="text;strokeColor=none;align=center;fillColor=none;html=1;verticalAlign=middle;whiteSpace=wrap;rounded=0;fontFamily=Shantell Sans;fontSource=https://fonts.googleapis.com/css?family=Shantell+Sans;fontSize=18;fontColor=light-dark(#000000, #b8b8ba);" vertex="1" parent="1">
                    <mxGeometry x="0.997619047619037" y="412.9965292503719" width="60" height="30" as="geometry"/>
                </mxCell>
                <mxCell id="11" value="&lt;p&gt;&lt;font style=&quot;font-size: 22px;&quot; face=&quot;Fira Code&quot;&gt;0:&lt;/font&gt;&lt;/p&gt;" style="text;strokeColor=none;align=center;fillColor=none;html=1;verticalAlign=middle;whiteSpace=wrap;rounded=0;fontFamily=Shantell Sans;fontSource=https://fonts.googleapis.com/css?family=Shantell+Sans;fontSize=18;fontColor=light-dark(#000000, #b8b8ba);" vertex="1" parent="1">
                    <mxGeometry x="95.99761904761904" y="359.9965292503719" width="60" height="30" as="geometry"/>
                </mxCell>
                <mxCell id="12" value="&lt;p&gt;&lt;font face=&quot;Fira Code&quot;&gt;&lt;span style=&quot;font-size: 22px;&quot;&gt;1:&lt;/span&gt;&lt;/font&gt;&lt;/p&gt;" style="text;strokeColor=none;align=center;fillColor=none;html=1;verticalAlign=middle;whiteSpace=wrap;rounded=0;fontFamily=Shantell Sans;fontSource=https://fonts.googleapis.com/css?family=Shantell+Sans;fontSize=18;fontColor=light-dark(#000000, #b8b8ba);" vertex="1" parent="1">
                    <mxGeometry x="210.99761904761903" y="359.9965292503719" width="60" height="30" as="geometry"/>
                </mxCell>
                <mxCell id="13" value="&lt;p&gt;&lt;font face=&quot;Fira Code&quot;&gt;&lt;span style=&quot;font-size: 22px;&quot;&gt;2:&lt;/span&gt;&lt;/font&gt;&lt;/p&gt;" style="text;strokeColor=none;align=center;fillColor=none;html=1;verticalAlign=middle;whiteSpace=wrap;rounded=0;fontFamily=Shantell Sans;fontSource=https://fonts.googleapis.com/css?family=Shantell+Sans;fontSize=18;fontColor=light-dark(#000000, #b8b8ba);" vertex="1" parent="1">
                    <mxGeometry x="330.997619047619" y="359.9965292503719" width="60" height="30" as="geometry"/>
                </mxCell>
                <mxCell id="14" value="&lt;p&gt;&lt;font face=&quot;Fira Code&quot;&gt;&lt;span style=&quot;font-size: 22px;&quot;&gt;3:&lt;/span&gt;&lt;/font&gt;&lt;/p&gt;" style="text;strokeColor=none;align=center;fillColor=none;html=1;verticalAlign=middle;whiteSpace=wrap;rounded=0;fontFamily=Shantell Sans;fontSource=https://fonts.googleapis.com/css?family=Shantell+Sans;fontSize=18;fontColor=light-dark(#000000, #b8b8ba);" vertex="1" parent="1">
                    <mxGeometry x="450.997619047619" y="359.9965292503719" width="60" height="30" as="geometry"/>
                </mxCell>
                <mxCell id="15" value="&lt;p&gt;&lt;font face=&quot;Fira Code&quot;&gt;&lt;span style=&quot;font-size: 22px;&quot;&gt;4:&lt;/span&gt;&lt;/font&gt;&lt;/p&gt;" style="text;strokeColor=none;align=center;fillColor=none;html=1;verticalAlign=middle;whiteSpace=wrap;rounded=0;fontFamily=Shantell Sans;fontSource=https://fonts.googleapis.com/css?family=Shantell+Sans;fontSize=18;fontColor=light-dark(#000000, #b8b8ba);" vertex="1" parent="1">
                    <mxGeometry x="570.9976190476191" y="359.9965292503719" width="60" height="30" as="geometry"/>
                </mxCell>
                <mxCell id="16" value="&lt;p&gt;&lt;font face=&quot;Fira Code&quot;&gt;&lt;span style=&quot;font-size: 22px;&quot;&gt;5:&lt;/span&gt;&lt;/font&gt;&lt;/p&gt;" style="text;strokeColor=none;align=center;fillColor=none;html=1;verticalAlign=middle;whiteSpace=wrap;rounded=0;fontFamily=Shantell Sans;fontSource=https://fonts.googleapis.com/css?family=Shantell+Sans;fontSize=18;fontColor=light-dark(#000000, #b8b8ba);" vertex="1" parent="1">
                    <mxGeometry x="690.9976190476191" y="359.9965292503719" width="60" height="30" as="geometry"/>
                </mxCell>
                <mxCell id="17" value="" style="edgeStyle=none;orthogonalLoop=1;jettySize=auto;html=1;strokeColor=light-dark(#2B5CA8,#5881BA);strokeWidth=2;fontFamily=Shantell Sans;fontSource=https://fonts.googleapis.com/css?family=Shantell+Sans;fontSize=18;fontColor=light-dark(#000000, #FFFFFF);endArrow=blockThin;endSize=12;exitX=0.5;exitY=0.5;exitDx=0;exitDy=0;exitPerimeter=0;entryX=0.5;entryY=0;entryDx=0;entryDy=0;" edge="1" parent="1" source="8" target="5">
                    <mxGeometry width="80" relative="1" as="geometry">
                        <mxPoint x="303" y="259" as="sourcePoint"/>
                        <mxPoint x="571" y="514" as="targetPoint"/>
                        <Array as="points"/>
                    </mxGeometry>
                </mxCell>
            </root>
        </mxGraphModel>
    </diagram>
</mxfile>